Smallville S05E1112 1080p AVCHD

This is episodes 11 and 12 of the fifth season of smallville in 1080p AVCHD format that can be play in any PS3 and in some blu-ray players. In a PC it can be pay with Powerdvd.

Just burn the iso with imgburn.

Video 1080p
English Audio Dolby Digital 5.1
Optional spanish Subtitles
Chapters


Season 5, Episode 11: Lockdown
Original Air Date 19 January 2006
A deranged policeman who survived the attack of the Kryptonians and his policewoman fiancée break into Lex's mansion asking for the location of the spaceship so they can go public with the news of "aliens on Earth". But Lex locks himself in the panic room. Clark accidentally finds the association of Lana with Lex in their research of the spacecraft when Lana is kidnapped by the renegade cops to force Luthor to leave the room. Lex's gets shot, but Lana escapes to the panic room with him. Meanwhile, Jonathan presses Lois to find out who is funding his campaign and Martha tells the truth about Lionel.
	
Season 5, Episode 12: Reckoning
Original Air Date 26 January 2006
Clark reveals his secret to Lana, Jonathan and Lex learn the results of the senatorial election, and there is a tragic car accident on the highway that takes the life of someone Clark loves, forcing Clark to appeal to Jor-El for help.


Episodes 01 02   
http://thepiratebay.org/torrent/5726041/Smallville_S05E0102_1080p_AVCHD

Episodes 03 04   
http://thepiratebay.org/torrent/5802610/Smallville_S05E0304_1080p_AVCHD

Episodes 05 06   
http://thepiratebay.org/torrent/5811212/Smallville_S05E0506_1080p_AVCHD

Episodes 07 08  
http://thepiratebay.org/torrent/5819194/Smallville_S05E0708_1080p_AVCHD

Episodes 09 10 
http://thepiratebay.org/torrent/5839361/Smallville_S05E0910_1080p_AVCHD


Mediainfo:

Format                           : BDAV
Format/Info                      : Blu-ray Video
File size                        : 2.15 GiB
Duration                         : 41mn 34s
Overall bit rate                 : 7 417 Kbps
Maximum Overall bit rate         : 35.5 Mbps

Video
ID                               : 4113 (0x1011)
Menu ID                          : 1 (0x1)
Format                           : AVC
Format/Info                      : Advanced Video Codec
Format profile                   : High@L4.1
Format settings, CABAC           : Yes
Format settings, ReFrames        : 3 frames
Format_Settings_GOP              : N=1
Duration                         : 41mn 34s
Bit rate mode                    : Variable
Bit rate                         : 6 472 Kbps
Nominal bit rate                 : 6 315 Kbps
Maximum bit rate                 : 24.0 Mbps
Width                            : 1 920 pixels
Height                           : 1 080 pixels
Display aspect ratio             : 16:9
Frame rate                       : 23.976 fps
Resolution                       : 8 bits
Colorimetry                      : 4:2:0
Scan type                        : Progressive
Bits/(Pixel*Frame)               : 0.130
Stream size                      : 1.88 GiB (87%)
Writing library                  : x264 core 79 r1352M d487de4
Encoding settings                : cabac=1 / ref=3 / deblock=1:0:0 / analyse=0x3:0x113 / me=umh / subme=7 / psy=1 / psy_rd=1.0:0.3 / mixed_ref=1 / me_range=16 / chroma_me=1 / trellis=1 / 8x8dct=1 / cqm=0 / deadzone=21,11 / chroma_qp_offset=-4 / threads=4 / nr=0 / decimate=1 / mbaff=0 / constrained_intra=0 / bframes=3 / b_pyramid=0 / b_adapt=1 / b_bias=0 / direct=3 / wpredb=1 / wpredp=0 / keyint=24 / keyint_min=2 / scenecut=40 / rc_lookahead=24 / rc=2pass / mbtree=1 / bitrate=6315 / ratetol=1.0 / qcomp=0.60 / qpmin=10 / qpmax=51 / qpstep=4 / cplxblur=20.0 / qblur=0.5 / vbv_maxrate=24000 / vbv_bufsize=24000 / ip_ratio=1.10 / aq=1:1.00 / pulldown=0 / nal_hrd=1

Audio
ID                               : 4352 (0x1100)
Menu ID                          : 1 (0x1)
Format                           : AC-3
Format/Info                      : Audio Coding 3
Format_Settings_ModeExtension    : CM (complete main)
Duration                         : 41mn 34s
Bit rate mode                    : Constant
Bit rate                         : 640 Kbps
Channel(s)                       : 6 channels
Channel positions                : Front: L C R, Side: L R, LFE
Sampling rate                    : 48.0 KHz
Stream size                      : 190 MiB (9%)
Language                         : English /  / 

Text
ID                               : 4608 (0x1200)
Menu ID                          : 1 (0x1)
Format                           : PGS
Video delay                      : 3s 253ms
Language                         : Spanish /  / 

